<svg width="16" height="16" viewBox="0 0 16 16" fill="none" xmlns="http://www.w3.org/2000/svg">
<path d="M15.8306 4.42779C15.9718 4.60431 16.0247 4.81612 15.9894 5.06324L15.3187 8.91124C15.2951 9.11135 15.2039 9.27603 15.0451 9.40548C14.8862 9.53492 14.7068 9.59964 14.5067 9.59964H4.72792L4.53376 10.694H13.8537C14.0772 10.694 14.2713 10.7734 14.4361 10.9323C14.6009 11.0912 14.6832 11.2883 14.6832 11.5236C14.6832 11.759 14.6009 11.9561 14.4361 12.1149C14.2713 12.2738 14.0772 12.3532 13.8537 12.3532H3.54529C3.29817 12.3532 3.08636 12.2532 2.90984 12.0533C2.7451 11.8531 2.68038 11.6237 2.71568 11.3649L3.15696 8.96428L2.48621 2.22144L0.579877 1.6213C0.356294 1.5507 0.194491 1.41534 0.0944669 1.21532C-0.00555687 1.01525 -0.02615 0.803459 0.0326875 0.579876C0.103293 0.356294 0.241561 0.194491 0.447492 0.0944669C0.653423 -0.00555687 0.862297 -0.02615 1.07411 0.0326875L3.50999 0.809343C3.66296 0.856413 3.78946 0.944669 3.88949 1.07411C3.98951 1.20355 4.05129 1.35068 4.07483 1.51542L4.21604 2.85692L15.2657 4.09251C15.5128 4.12772 15.7011 4.23951 15.8306 4.42779ZM4.79856 12.8122C5.15158 12.8122 5.45165 12.9357 5.69877 13.1829C5.94589 13.4299 6.06945 13.7301 6.06945 14.0831C6.06945 14.4361 5.94589 14.7392 5.69877 14.9922C5.45165 15.2452 5.15158 15.3717 4.79856 15.3717C4.44553 15.3717 4.14546 15.2452 3.89834 14.9922C3.65122 14.7392 3.52767 14.4361 3.52767 14.0831C3.52767 13.7301 3.65122 13.43 3.89834 13.1829C4.14543 12.9357 4.4455 12.8122 4.79856 12.8122ZM12.3356 12.8122C12.6886 12.8122 12.9887 12.9357 13.2359 13.1829C13.4829 13.4299 13.6065 13.7301 13.6065 14.0831C13.6065 14.4361 13.4829 14.7392 13.2359 14.9922C12.9887 15.2452 12.6886 15.3717 12.3356 15.3717C11.9826 15.3717 11.6825 15.2452 11.4354 14.9922C11.1883 14.7392 11.0647 14.4361 11.0647 14.0831C11.0647 13.7301 11.1883 13.43 11.4354 13.1829C11.6825 12.9357 11.9826 12.8122 12.3356 12.8122Z" fill="white"/>
</svg>
