<svg width="60" height="60" viewBox="0 0 60 60" fill="none" xmlns="http://www.w3.org/2000/svg">
<g clip-path="url(#clip0)">
<path d="M0.0950196 38.2192L3.04252 45.3342C3.27502 45.8967 3.87252 46.2042 4.47002 46.0742L11.99 44.3892C13.0575 45.7267 14.27 46.9392 15.6075 48.0067L13.925 55.5292C13.7925 56.1217 14.105 56.7242 14.665 56.9567L21.78 59.9042C21.9375 59.9692 22.0975 59.9992 22.26 59.9992C22.6775 59.9992 23.08 59.7892 23.315 59.4192L27.44 52.9092C29.14 53.0992 30.855 53.0992 32.5575 52.9092L36.6825 59.4192C37.0075 59.9342 37.655 60.1367 38.2175 59.9042L45.3325 56.9567C45.895 56.7242 46.2075 56.1217 46.0725 55.5292L44.3875 48.0092C45.725 46.9417 46.9375 45.7292 48.005 44.3917L55.525 46.0767C56.12 46.2067 56.72 45.8967 56.9525 45.3367L59.9 38.2217C60.1325 37.6592 59.9275 37.0142 59.415 36.6867L52.905 32.5617C53.095 30.8617 53.095 29.1467 52.905 27.4442L59.415 23.3192C59.9275 22.9942 60.135 22.3467 59.9 21.7842L56.9525 14.6692C56.72 14.1067 56.12 13.7892 55.525 13.9292L48.005 15.6142C46.9375 14.2767 45.725 13.0642 44.3875 11.9967L46.0725 4.47421C46.205 3.88171 45.8925 3.27671 45.3325 3.04671L38.2175 0.0992099C37.655 -0.13329 37.01 0.0717099 36.6825 0.58421L32.5575 7.09421C30.8575 6.90421 29.1425 6.90421 27.44 7.09421L23.315 0.58421C22.99 0.0692099 22.345 -0.13579 21.78 0.0992099L14.665 3.04171C14.105 3.27421 13.7925 3.87671 13.925 4.46921L15.61 11.9917C14.2725 13.0592 13.06 14.2717 11.9925 15.6092L4.47002 13.9242C3.87502 13.7842 3.27502 14.1042 3.04252 14.6642L0.0950196 21.7792C-0.13748 22.3417 0.0675196 22.9867 0.58002 23.3142L7.09002 27.4392C6.90002 29.1392 6.90002 30.8542 7.09002 32.5567L0.58002 36.6817C0.0675196 37.0092 -0.13748 37.6567 0.0950196 38.2192ZM9.10252 34.2417C9.52002 33.9767 9.74252 33.4917 9.67002 33.0017C9.37252 31.0067 9.37252 28.9842 9.67002 26.9942C9.74252 26.5042 9.52002 26.0192 9.10252 25.7542L2.80752 21.7667L4.95002 16.5942L12.2225 18.2242C12.71 18.3342 13.205 18.1442 13.5 17.7492C14.7 16.1292 16.13 14.6992 17.75 13.4992C18.1475 13.2042 18.3325 12.7042 18.225 12.2217L16.595 4.94921L21.7675 2.80671L25.7575 9.10171C26.0225 9.51921 26.5025 9.73171 26.9975 9.66921C28.9825 9.37421 31.02 9.37421 33.005 9.66921C33.4925 9.73171 33.98 9.51921 34.245 9.10171L38.235 2.80671L43.4075 4.94921L41.775 12.2217C41.6675 12.7042 41.855 13.2042 42.25 13.4992C43.87 14.6992 45.3 16.1292 46.4975 17.7467C46.7925 18.1467 47.29 18.3367 47.775 18.2217L55.05 16.5917L57.1925 21.7642L50.8975 25.7542C50.48 26.0192 50.2575 26.5042 50.33 26.9942C50.6275 28.9892 50.6275 31.0117 50.33 33.0017C50.2575 33.4917 50.48 33.9767 50.8975 34.2417L57.1925 38.2317L55.05 43.4042L47.7775 41.7742C47.29 41.6667 46.795 41.8517 46.5 42.2492C45.3 43.8692 43.87 45.2992 42.2525 46.4967C41.855 46.7917 41.6675 47.2917 41.775 47.7742L43.405 55.0492L38.2325 57.1917L34.2425 50.8967C33.9775 50.4792 33.48 50.2567 33.0025 50.3292C31.0175 50.6242 28.98 50.6242 26.995 50.3292C26.49 50.2567 26.02 50.4792 25.755 50.8967L21.765 57.1917L16.595 55.0492L18.225 47.7767C18.3325 47.2942 18.1475 46.7942 17.75 46.4992C16.13 45.2992 14.7 43.8692 13.5025 42.2517C13.2075 41.8517 12.7125 41.6692 12.225 41.7742L4.95002 43.4042L2.80752 38.2317L9.10252 34.2417Z" fill="url(#paint0_linear)"/>
<path d="M30 45C38.2725 45 45 38.2725 45 30C45 21.7275 38.2725 15 30 15C21.7275 15 15 21.7275 15 30C15 38.2725 21.7275 45 30 45ZM30 17.5C36.8925 17.5 42.5 23.1075 42.5 30C42.5 36.8925 36.8925 42.5 30 42.5C23.1075 42.5 17.5 36.8925 17.5 30C17.5 23.1075 23.1075 17.5 30 17.5Z" fill="url(#paint1_linear)"/>
</g>
<defs>
<linearGradient id="paint0_linear" x1="-5.16044" y1="4.82093" x2="40.3551" y2="62.3176" gradientUnits="userSpaceOnUse">
<stop stop-color="#FFA734"/>
<stop offset="1" stop-color="#EFC176"/>
</linearGradient>
<linearGradient id="paint1_linear" x1="12.4198" y1="17.4093" x2="35.1784" y2="46.1592" gradientUnits="userSpaceOnUse">
<stop stop-color="#FFA734"/>
<stop offset="1" stop-color="#EFC176"/>
</linearGradient>
<clipPath id="clip0">
<rect width="60" height="60" fill="white"/>
</clipPath>
</defs>
</svg>
