<svg width="16" height="16" viewBox="0 0 16 16" fill="none" xmlns="http://www.w3.org/2000/svg">
<path d="M14.6408 1.35885C12.8285 -0.452949 9.89019 -0.452949 8.07791 1.35885C6.62796 2.80841 6.3383 4.9785 7.20847 6.71621L0.00429126 13.9186L0 15.9954L4.02858 16V14.0411H5.98796V12.0823H7.94734V10.1234L9.28196 8.78917C11.0201 9.65915 13.1908 9.36953 14.6408 7.91997C16.4531 6.10817 16.4531 3.17064 14.6408 1.35885ZM13.1655 4.81762C12.6175 5.36546 11.7291 5.36546 11.1811 4.81762C10.633 4.26979 10.6331 3.38156 11.1811 2.8337C11.729 2.28583 12.6175 2.28586 13.1655 2.8337C13.7135 3.38156 13.7135 4.26979 13.1655 4.81762Z" fill="#595959"/>
</svg>
