<svg width="60" height="60" viewBox="0 0 60 60" fill="none" xmlns="http://www.w3.org/2000/svg">
<g clip-path="url(#clip0)">
<path d="M30 0C13.4575 0 2.28629e-05 13.4575 2.28629e-05 30C2.28629e-05 35.465 1.50252 40.8125 4.34502 45.5075L0.0625229 58.355C-0.0874771 58.805 0.0300229 59.3 0.365023 59.635C0.605023 59.8725 0.922523 60 1.25002 60C1.38252 60 1.51502 59.98 1.64502 59.935L14.4925 55.6525C19.1875 58.4975 24.535 60 30 60C46.5425 60 60 46.5425 60 30C60 13.4575 46.5425 0 30 0ZM30 57.5C24.8125 57.5 19.735 56.0225 15.3225 53.2275C15.12 53.1 14.8875 53.0325 14.6525 53.0325C14.52 53.0325 14.3875 53.0525 14.2575 53.0975L3.22752 56.775L6.90502 45.7425C7.02252 45.385 6.97502 44.995 6.77502 44.6775C3.97752 40.2625 2.50002 35.1875 2.50002 30C2.50002 14.8375 14.8375 2.5 30 2.5C45.1625 2.5 57.5 14.8375 57.5 30C57.5 45.1625 45.1625 57.5 30 57.5Z" fill="url(#paint0_linear)"/>
<path d="M45 25C42.2425 25 40 27.2425 40 30C40 32.7575 42.2425 35 45 35C47.7575 35 50 32.7575 50 30C50 27.2425 47.7575 25 45 25ZM45 32.5C43.62 32.5 42.5 31.3775 42.5 30C42.5 28.6225 43.62 27.5 45 27.5C46.38 27.5 47.5 28.6225 47.5 30C47.5 31.3775 46.38 32.5 45 32.5Z" fill="url(#paint1_linear)"/>
<path d="M30 25C27.245 25 25 27.2425 25 30C25 32.7575 27.245 35 30 35C32.755 35 35 32.7575 35 30C35 27.2425 32.755 25 30 25ZM30 32.5C28.62 32.5 27.5 31.3775 27.5 30C27.5 28.6225 28.62 27.5 30 27.5C31.38 27.5 32.5 28.6225 32.5 30C32.5 31.3775 31.38 32.5 30 32.5Z" fill="url(#paint2_linear)"/>
<path d="M15 25C12.245 25 10 27.2425 10 30C10 32.7575 12.245 35 15 35C17.755 35 20 32.7575 20 30C20 27.2425 17.755 25 15 25ZM15 32.5C13.62 32.5 12.5 31.3775 12.5 30C12.5 28.6225 13.62 27.5 15 27.5C16.38 27.5 17.5 28.6225 17.5 30C17.5 31.3775 16.38 32.5 15 32.5Z" fill="url(#paint3_linear)"/>
</g>
<defs>
<linearGradient id="paint0_linear" x1="-5.16234" y1="4.8187" x2="40.3547" y2="62.3197" gradientUnits="userSpaceOnUse">
<stop stop-color="#FFA734"/>
<stop offset="1" stop-color="#EFC176"/>
</linearGradient>
<linearGradient id="paint1_linear" x1="39.1399" y1="25.8031" x2="46.7261" y2="35.3864" gradientUnits="userSpaceOnUse">
<stop stop-color="#FFA734"/>
<stop offset="1" stop-color="#EFC176"/>
</linearGradient>
<linearGradient id="paint2_linear" x1="24.1399" y1="25.8031" x2="31.7261" y2="35.3864" gradientUnits="userSpaceOnUse">
<stop stop-color="#FFA734"/>
<stop offset="1" stop-color="#EFC176"/>
</linearGradient>
<linearGradient id="paint3_linear" x1="9.13992" y1="25.8031" x2="16.7261" y2="35.3864" gradientUnits="userSpaceOnUse">
<stop stop-color="#FFA734"/>
<stop offset="1" stop-color="#EFC176"/>
</linearGradient>
<clipPath id="clip0">
<rect width="60" height="60" fill="white"/>
</clipPath>
</defs>
</svg>
