<svg width="60" height="60" viewBox="0 0 60 60" fill="none" xmlns="http://www.w3.org/2000/svg">
<path d="M56.25 27.5H55V18.75C55 16.6825 53.3175 15 51.25 15H47.5V11.25C47.5 9.1825 45.8175 7.5 43.75 7.5H3.75C1.6825 7.5 0 9.1825 0 11.25V13.75V51.25C0 53.3175 1.6825 55 3.75 55H51.25C53.3175 55 55 53.3175 55 51.25V42.5H56.25C58.3175 42.5 60 40.8175 60 38.75V31.25C60 29.1825 58.3175 27.5 56.25 27.5ZM2.5 11.25C2.5 10.56 3.0625 10 3.75 10H43.75C44.4375 10 45 10.56 45 11.25V15H6.25H3.75C3.0625 15 2.5 14.44 2.5 13.75V11.25ZM52.5 51.25C52.5 51.94 51.9375 52.5 51.25 52.5H3.75C3.0625 52.5 2.5 51.94 2.5 51.25V17.27C2.8925 17.41 3.31 17.5 3.75 17.5H6.25H46.25H51.25C51.9375 17.5 52.5 18.06 52.5 18.75V27.5H43.75C41.6825 27.5 40 29.1825 40 31.25V38.75C40 40.8175 41.6825 42.5 43.75 42.5H52.5V51.25ZM57.5 38.75C57.5 39.44 56.9375 40 56.25 40H43.75C43.0625 40 42.5 39.44 42.5 38.75V31.25C42.5 30.56 43.0625 30 43.75 30H56.25C56.9375 30 57.5 30.56 57.5 31.25V38.75Z" fill="url(#paint0_linear)"/>
<path d="M47.5 37.5C48.8807 37.5 50 36.3807 50 35C50 33.6193 48.8807 32.5 47.5 32.5C46.1193 32.5 45 33.6193 45 35C45 36.3807 46.1193 37.5 47.5 37.5Z" fill="url(#paint1_linear)"/>
<defs>
<linearGradient id="paint0_linear" x1="-5.16048" y1="11.3148" x2="28.1579" y2="64.4804" gradientUnits="userSpaceOnUse">
<stop stop-color="#FFA734"/>
<stop offset="1" stop-color="#EFC176"/>
</linearGradient>
<linearGradient id="paint1_linear" x1="44.57" y1="32.9016" x2="48.3631" y2="37.6932" gradientUnits="userSpaceOnUse">
<stop stop-color="#FFA734"/>
<stop offset="1" stop-color="#EFC176"/>
</linearGradient>
</defs>
</svg>
