<svg width="33" height="33" viewBox="0 0 33 33" fill="none" xmlns="http://www.w3.org/2000/svg">
<path d="M30.8875 24.5823C30.6511 25.1403 29.5684 27.3878 27.1119 28.4126C25.1942 29.2122 22.9863 29.0721 20.542 28.0068C18.4934 29.1817 16.9247 28.6998 16.9247 28.6998C10.7717 24.2434 6.73945 13.2068 6.73945 13.2068C5.67913 9.59968 8.54353 7.90215 8.54353 7.90215C12.1507 5.78048 13.212 6.7363 13.212 6.7363C14.0603 7.05287 14.803 11.0862 14.803 11.0862C14.4854 12.5716 11.7265 13.2078 11.7265 13.2078C12.9999 16.9215 17.6684 22.6513 17.6684 22.6513C17.8805 21.9116 19.579 20.8503 19.579 20.8503C20.6394 20.2141 23.6103 23.9258 23.6103 23.9258C24.4555 24.5396 23.5778 25.4883 23.0279 25.9663C24.1735 26.2615 25.1861 26.2301 26.0506 25.8678C27.6862 25.1839 28.3447 23.5179 28.3529 23.4986L28.3914 23.3931L28.4482 23.2946C29.7795 20.9629 30.3903 18.3096 30.2168 15.6187C29.9834 11.9557 28.3356 8.60328 25.5788 6.18026C22.8229 3.75521 19.2889 2.5508 15.6249 2.78518C11.9599 3.01957 8.60847 4.66739 6.18443 7.42322C3.76039 10.1791 2.55497 13.7142 2.79037 17.3791C3.02476 21.0401 4.67156 24.3935 7.42841 26.8176C10.1842 29.2416 13.7173 30.446 17.3833 30.2116C18.1433 30.1589 18.7998 30.7403 18.8465 31.5013C18.8952 32.2623 18.3178 32.9177 17.5568 32.9644C17.1976 32.9877 16.8374 32.9999 16.4782 32.9999C12.4693 32.9999 8.64398 31.5611 5.60607 28.8895C2.29521 25.9805 0.316615 21.9553 0.0345378 17.5577C-0.24754 13.1601 1.19938 8.91276 4.11045 5.60596C7.02052 2.29713 11.0457 0.319544 15.4433 0.0374669C19.8398 -0.24461 24.0862 1.2023 27.395 4.1144C30.7059 7.02446 32.6824 11.0496 32.9645 15.4472C33.1735 18.6424 32.4541 21.801 30.8875 24.5823ZM24.6615 21.1395C24.8249 21.2024 24.9943 21.2328 25.1597 21.2328C25.7127 21.2328 26.2342 20.898 26.4463 20.3511C27.4762 17.6947 27.4092 14.7958 26.2586 12.1911C25.108 9.58548 23.0127 7.58354 20.3563 6.55366C19.647 6.27868 18.8475 6.63077 18.5715 7.34104C18.2965 8.0513 18.6486 8.84985 19.3578 9.12482C23.4216 10.7016 25.4469 15.2879 23.8721 19.3527C23.5981 20.065 23.9502 20.8635 24.6615 21.1395ZM17.1712 10.9543C16.8963 11.6635 17.2484 12.4631 17.9586 12.7391C20.0316 13.5427 21.0655 15.8825 20.2619 17.9555C19.9869 18.6657 20.339 19.4643 21.0483 19.7392C21.2127 19.8032 21.3811 19.8356 21.5465 19.8356C22.0995 19.8356 22.623 19.5008 22.8341 18.9539C24.1866 15.4624 22.4465 11.5204 18.956 10.1679C18.2458 9.89089 17.4472 10.243 17.1712 10.9543Z" fill="#FFA734"/>
</svg>
