<svg width="60" height="60" viewBox="0 0 60 60" fill="none" xmlns="http://www.w3.org/2000/svg">
<path d="M52.43 4.80237C52.415 4.75487 52.4175 4.70237 52.3975 4.65737C52.375 4.60487 52.3325 4.56487 52.3025 4.51737C52.25 4.42987 52.2025 4.33737 52.13 4.26487C52.1025 4.23737 52.0625 4.22237 52.0325 4.19737C51.9375 4.11987 51.84 4.04237 51.725 3.99487C51.72 3.99237 51.72 3.98987 51.715 3.98737C38.41 -1.31513 19.0925 -1.31513 5.7875 3.98737C5.7825 3.98987 5.78 3.99487 5.775 3.99487C5.66 4.04237 5.56 4.11987 5.4625 4.19987C5.435 4.22487 5.395 4.23737 5.37 4.26487C5.295 4.33987 5.2475 4.43487 5.1925 4.52487C5.165 4.57237 5.1225 4.60987 5.1025 4.65737C5.0825 4.70237 5.085 4.75737 5.07 4.80487C5.0375 4.91487 5.0025 5.02237 5.0025 5.13737C5.0025 5.14237 5 5.14487 5 5.14987V28.5999C5 39.9349 11.1575 50.4024 21.07 55.9174L28.145 59.8424C28.3325 59.9474 28.54 59.9999 28.75 59.9999C28.96 59.9999 29.1675 59.9474 29.355 59.8424L36.4325 55.9174C46.3425 50.4024 52.5 39.9349 52.5 28.5999V5.14987C52.5 5.14487 52.4975 5.14237 52.4975 5.13737C52.4975 5.02237 52.4625 4.91237 52.43 4.80237ZM35.22 53.7324L28.75 57.3199L22.2825 53.7324C13.165 48.6574 7.5 39.0274 7.5 28.5999V6.04987C19.9825 1.35237 37.5175 1.35237 50 6.04987V28.5999C50 39.0274 44.335 48.6574 35.22 53.7324Z" fill="url(#paint0_linear)"/>
<path d="M40.3 17.9375L26.18 34.4125L19.635 27.8675C19.1475 27.38 18.355 27.38 17.8675 27.8675C17.38 28.355 17.38 29.1475 17.8675 29.635L25.3675 37.135C25.6 37.3675 25.9175 37.5 26.25 37.5C26.2675 37.5 26.2825 37.5 26.2975 37.5C26.645 37.4875 26.9725 37.33 27.1975 37.065L42.1975 19.565C42.6475 19.04 42.585 18.2525 42.06 17.8025C41.545 17.3525 40.755 17.4125 40.3 17.9375Z" fill="url(#paint1_linear)"/>
<defs>
<linearGradient id="paint0_linear" x1="0.914617" y1="4.82834" x2="47.6722" y2="51.5976" gradientUnits="userSpaceOnUse">
<stop stop-color="#FFA734"/>
<stop offset="1" stop-color="#EFC176"/>
</linearGradient>
<linearGradient id="paint1_linear" x1="15.3519" y1="19.1069" x2="29.4445" y2="41.3574" gradientUnits="userSpaceOnUse">
<stop stop-color="#FFA734"/>
<stop offset="1" stop-color="#EFC176"/>
</linearGradient>
</defs>
</svg>
