<svg width="60" height="60" viewBox="0 0 60 60" fill="none" xmlns="http://www.w3.org/2000/svg">
<path d="M23.75 47.5C21.6825 47.5 20 49.1825 20 51.25C20 51.94 20.56 52.5 21.25 52.5C21.94 52.5 22.5 51.94 22.5 51.25C22.5 50.56 23.06 50 23.75 50C24.44 50 25 49.44 25 48.75C25 48.06 24.44 47.5 23.75 47.5Z" fill="url(#paint0_linear)"/>
<path d="M57.4469 40.7148C57.2469 40.0548 56.5569 39.6798 55.8894 39.8773L31.4669 47.2173C30.0019 44.4273 27.1119 42.4998 23.7494 42.4998C23.0719 42.4998 22.4219 42.5948 21.7894 42.7398L12.4619 5.94226C12.3719 5.58976 12.1319 5.29476 11.8094 5.13226L1.80937 0.132257C1.19187 -0.175243 0.441868 0.0722566 0.131868 0.689757C-0.175632 1.30726 0.0743679 2.05726 0.691868 2.36726L10.1794 7.10976L19.4469 43.6773C16.8044 45.1848 14.9994 47.9973 14.9994 51.2498C14.9994 56.0748 18.9244 59.9998 23.7494 59.9998C28.5744 59.9998 32.4994 56.0748 32.4994 51.2498C32.4994 50.6748 32.4369 50.1148 32.3294 49.5698L56.6094 42.2748C57.2694 42.0748 57.6444 41.3773 57.4469 40.7148ZM23.7494 57.4998C20.3044 57.4998 17.4994 54.6948 17.4994 51.2498C17.4994 47.8048 20.3044 44.9998 23.7494 44.9998C27.1944 44.9998 29.9994 47.8048 29.9994 51.2498C29.9994 54.6948 27.1944 57.4998 23.7494 57.4998Z" fill="url(#paint1_linear)"/>
<path d="M20.0475 16.3373L27.29 41.5948C27.4475 42.1448 27.9475 42.4998 28.49 42.4998C28.605 42.4998 28.72 42.4848 28.835 42.4498L54.0925 35.2073C54.7575 35.0173 55.14 34.3248 54.95 33.6623L47.7075 8.40483C47.52 7.73983 46.8225 7.35983 46.1625 7.54733L20.905 14.7923C20.2425 14.9823 19.8575 15.6723 20.0475 16.3373ZM45.65 10.2973L52.2025 33.1523L29.3475 39.7048L22.7975 16.8498L45.65 10.2973Z" fill="url(#paint2_linear)"/>
<defs>
<linearGradient id="paint0_linear" x1="19.57" y1="47.9016" x2="23.3631" y2="52.6932" gradientUnits="userSpaceOnUse">
<stop stop-color="#FFA734"/>
<stop offset="1" stop-color="#EFC176"/>
</linearGradient>
<linearGradient id="paint1_linear" x1="-4.94503" y1="4.8189" x2="40.9791" y2="60.415" gradientUnits="userSpaceOnUse">
<stop stop-color="#FFA734"/>
<stop offset="1" stop-color="#EFC176"/>
</linearGradient>
<linearGradient id="paint2_linear" x1="16.9888" y1="10.3104" x2="43.5409" y2="43.8518" gradientUnits="userSpaceOnUse">
<stop stop-color="#FFA734"/>
<stop offset="1" stop-color="#EFC176"/>
</linearGradient>
</defs>
</svg>
